#!OML:ASF H:\Pregnant\Project 1\Capture day 1\Session 1\femalepreg.ASF
:FULLY-SPECIFIED
:DEGREES
1239
root 5.22235 15.5664 22.4853 27.4588 -75.137 1.95676
lowerback -9.8038 -0.0529807 -4.35987
upperback -8.96382 -0.110862 1.54338
thorax -3.8958 0.071241 4.06309
lowerneck -21.7865 8.6818 7.78381
upperneck 18.9551 10.1745 -3.0836
head 10.1908 4.89466 -0.781036
rclavicle -8.00108e-015 3.18055e-015
rhumerus -42.8963 18.5048 -77.666
rradius 33.3926
rwrist -5.62195
rhand -8.41489 -16.642
rfingers 7.12502
rthumb 17.5096 -45.8735
lclavicle -8.00108e-015 3.18055e-015
lhumerus -54.3221 -13.2251 83.9999
lradius 27.7694
lwrist 36.8546
lhand -17.1074 5.57788
lfingers 7.12502
lthumb 9.1317 35.3602
rfemur -50.4445 16.9383 10.3365
rtibia 41.2371
rfoot -16.8251 -22.6907
rtoes 1.34557
lfemur -34.8217 -8.43986 -19.5559
ltibia 17.2777
lfoot -7.23447 11.3796
ltoes -9.99543
1240
root 5.20521 15.5765 22.4873 26.875 -75.07 2.34534
lowerback -10.1359 -0.0890228 -4.35751
upperback -8.92166 -0.147481 1.49082
thorax -3.66464 0.0435741 4.00337
lowerneck -21.6452 8.44951 7.52579
upperneck 19.1507 9.93115 -2.98755
head 10.2026 4.77675 -0.750673
rclavicle -1.85864e-014 -1.59028e-014
rhumerus -43.729 18.5168 -77.6489
rradius 33.6946
rwrist -5.98417
rhand -8.80169 -16.6507
rfingers 7.12502
rthumb 17.1373 -45.915
lclavicle -1.85864e-014 -1.59028e-014
lhumerus -55.0388 -13.3084 83.9405
lradius 28.3156
lwrist 37.1547
lhand -16.669 5.54779
lfingers 7.12502
lthumb 9.55475 35.3111
rfemur -49.9646 17.2332 10.1889
rtibia 40.9385
rfoot -16.9364 -23.0399
rtoes 1.64017
lfemur -33.9195 -8.90153 -19.493
ltibia 16.1646
lfoot -6.87974 11.7068
ltoes -9.64725
1241
root 5.18926 15.5847 22.4892 26.3717 -75.013 2.67388
lowerback -10.468 -0.116419 -4.34382
upperback -8.88536 -0.173528 1.44289
thorax -3.44132 0.0210303 3.94272
lowerneck -21.5037 8.21891 7.27502
upperneck 19.3315 9.69264 -2.91812
head 10.212 4.65809 -0.729675
rclavicle -5.5287e-014 3.37934e-014
rhumerus -44.5378 18.5062 -77.6321
rradius 33.9556
rwrist -6.35077
rhand -9.21285 -16.6519
rfingers 7.12502
rthumb 16.7415 -45.9501
lclavicle -5.5287e-014 3.37934e-014
lhumerus -55.6823 -13.3298 83.8285
lradius 28.8271
lwrist 37.4057
lhand -16.2906 5.49599
lfingers 7.12502
lthumb 9.91984 35.2423
rfemur -49.5316 17.4791 10.0813
rtibia 40.6691
rfoot -17.0231 -23.3506
rtoes 1.8501
lfemur -33.0921 -9.36531 -19.4102
ltibia 15.1337
lfoot -6.55662 12.0512
ltoes -9.29461
1242
root 5.17437 15.5915 22.4908 25.9491 -74.9683 2.93882
lowerback -10.8007 -0.135265 -4.31996
upperback -8.8521 -0.18902 1.40042
thorax -3.22258 0.00364439 3.88276
lowerneck -21.3676 7.99327 7.03696
upperneck 19.5036 9.46189 -2.87626
head 10.2224 4.5402 -0.718493
rclavicle 1.01132e-014 1.59028e-015
rhumerus -45.3111 18.4676 -77.6107
rradius 34.1641
rwrist -6.70665
rhand -9.62628 -16.6418
rfingers 7.12502
rthumb 16.3435 -45.9732
lclavicle 1.01132e-014 1.59028e-015
lhumerus -56.2446 -13.2825 83.6551
lradius 29.2954
lwrist 37.6037
lhand -15.9769 5.42573
lfingers 7.12502
lthumb 10.2225 35.1573
rfemur -49.1402 17.6865 10.0105
rtibia 40.4246
rfoot -17.0783 -23.6339
rtoes 1.96279
lfemur -32.3389 -9.83651 -19.3043
ltibia 14.1924
lfoot -6.26924 12.4247
ltoes -8.94743
1243
root 5.16035 15.5969 22.492 25.6028 -74.9375 3.14064
lowerback -11.1337 -0.145349 -4.28716
upperback -8.8192 -0.193558 1.36316
thorax -3.00556 -0.0083553 3.8241
lowerneck -21.2422 7.77408 6.81386
upperneck 19.6722 9.23951 -2.85933
head 10.2367 4.42375 -0.716263
rclavicle -9.0447e-015 1.66979e-014
rhumerus -46.0381 18.3916 -77.5792
rradius 34.3096
rwrist -7.03665
rhand -10.024 -16.6191
rfingers 7.12502
rthumb 15.9606 -45.9815
lclavicle -9.0447e-015 1.66979e-014
lhumerus -56.7189 -13.1631 83.4127
lradius 29.7128
lwrist 37.7448
lhand -15.727 5.3399
lfingers 7.12502
lthumb 10.4635 35.0595
rfemur -48.7848 17.8712 9.96916
rtibia 40.2021
rfoot -17.1069 -23.9005
rtoes 1.99608
lfemur -31.658 -10.3145 -19.1763
ltibia 13.3474
lfoot -6.02275 12.8322
ltoes -8.61616
1244
root 5.14704 15.6013 22.4929 25.3292 -74.9207 3.2788
lowerback -11.465 -0.146556 -4.24541
upperback -8.78515 -0.187104 1.33071
thorax -2.78977 -0.0149258 3.76645
lowerneck -21.1315 7.56206 6.60639
upperneck 19.8423 9.02517 -2.86266
head 10.2568 4.30916 -0.721408
rclavicle -1.04859e-014 -4.73108e-014
rhumerus -46.7098 18.2659 -77.531
rradius 34.382
rwrist -7.32577
rhand -10.3945 -16.5851
rfingers 7.12502
rthumb 15.6037 -45.9758
lclavicle -1.04859e-014 -4.73108e-014
lhumerus -57.1021 -12.968 83.0941
lradius 30.0738
lwrist 37.8237
lhand -15.5398 5.241
lfingers 7.12502
lthumb 10.6441 34.9514
rfemur -48.4597 18.0515 9.94801
rtibia 39.9995
rfoot -17.1241 -24.158
rtoes 1.99632
lfemur -31.0465 -10.7945 -19.0291
ltibia 12.6042
lfoot -5.82238 13.2724
ltoes -8.30946
1245
root 5.13434 15.6047 22.4933 25.1256 -74.9162 3.3525
lowerback -11.7913 -0.139595 -4.19454
upperback -8.75001 -0.170859 1.30344
thorax -2.57686 -0.0165906 3.71015
lowerneck -21.036 7.35734 6.41309
upperneck 20.0168 8.81831 -2.88034
head 10.2834 4.19677 -0.731787
rclavicle -5.12616e-014 -1.43125e-014
rhumerus -47.3183 18.078 -77.4583
rradius 34.3717
rwrist -7.56076
rhand -10.7318 -16.543
rfingers 7.12502
rthumb 15.2789 -45.9587
lclavicle -5.12616e-014 -1.43125e-014
lhumerus -57.3953 -12.6914 82.6939
lradius 30.3748
lwrist 37.8343
lhand -15.412 5.13017
lfingers 7.12502
lthumb 10.7674 34.8342
rfemur -48.16 18.2437 9.93827
rtibia 39.8151
rfoot -17.15 -24.4109
rtoes 2.01688
lfemur -30.502 -11.2687 -18.8669
ltibia 11.9672
lfoot -5.67285 13.7382
ltoes -8.02908
1246
root 5.12221 15.6074 22.4936 24.9893 -74.9208 3.36198
lowerback -12.1085 -0.125618 -4.13334
upperback -8.71526 -0.14683 1.2819
thorax -2.37026 -0.0142906 3.65504
lowerneck -20.9526 7.16053 6.23455
upperneck 20.1971 8.61921 -2.90907
head 10.3164 4.08722 -0.746476
rclavicle -1.66482e-015 -1.98785e-015
rhumerus -47.8626 17.8262 -77.3585
rradius 34.2755
rwrist -7.73928
rhand -11.0349 -16.4981
rfingers 7.12502
rthumb 14.9869 -45.9358
lclavicle -1.66482e-015 -1.98785e-015
lhumerus -57.6035 -12.3268 82.2092
lradius 30.615
lwrist 37.7736
lhand -15.3426 5.00938
lfingers 7.12502
lthumb 10.8343 34.7099
rfemur -47.881 18.4567 9.93356
rtibia 39.6476
rfoot -17.2054 -24.6566
rtoes 2.11254
lfemur -30.0231 -11.7331 -18.6925
ltibia 11.4395
lfoot -5.57696 14.223
ltoes -7.77103
1247
root 5.1107 15.6093 22.4937 24.9151 -74.9303 3.31068
lowerback -12.4128 -0.106838 -4.06144
upperback -8.68267 -0.118376 1.26739
thorax -2.17363 -0.00959626 3.60201
lowerneck -20.8759 6.9722 6.06933
upperneck 20.3821 8.42864 -2.94519
head 10.3539 3.98132 -0.764123
rclavicle 3.96575e-014 2.38542e-014
rhumerus -48.3416 17.5116 -77.2289
rradius 34.091
rwrist -7.85936
rhand -11.3046 -16.4572
rfingers 7.12502
rthumb 14.727 -45.9141
lclavicle 3.96575e-014 2.38542e-014
lhumerus -57.7338 -11.8662 81.6401
lradius 30.7954
lwrist 37.6429
lhand -15.3351 4.87963
lfingers 7.12502
lthumb 10.8416 34.5798
rfemur -47.619 18.6872 9.93377
rtibia 39.4953
rfoot -17.2923 -24.8914
rtoes 2.28268
lfemur -29.6087 -12.1823 -18.5102
ltibia 11.0222
lfoot -5.53426 14.7158
ltoes -7.5335
